<?xml version="1.0" standalone="no"?>
<!DOCTYPE svg PUBLIC "-//W3C//DTD SVG 20010904//EN"
 "http://www.w3.org/TR/2001/REC-SVG-20010904/DTD/svg10.dtd">
<svg version="1.0" xmlns="http://www.w3.org/2000/svg"
 width="900.000000pt" height="198.000000pt" viewBox="0 0 900.000000 198.000000"
 preserveAspectRatio="xMidYMid meet">
<metadata>
Created by potrace 1.10, written by Peter Selinger 2001-2011
</metadata>
<g transform="translate(0.000000,198.000000) scale(0.100000,-0.100000)"
fill="#000000" stroke="none">
<path d="M495 1642 c-71 -1 -134 -7 -139 -12 -6 -6 -4 -16 5 -27 15 -20 16
-20 79 -138 24 -44 56 -105 73 -135 16 -30 50 -93 74 -139 25 -46 48 -91 53
-100 10 -18 196 -328 222 -369 9 -15 23 -37 30 -49 100 -170 136 -223 153
-227 37 -10 131 -6 147 7 14 11 208 330 208 342 0 3 13 24 30 47 16 22 30 45
30 49 0 4 17 34 39 66 21 32 50 83 65 113 15 30 35 69 45 86 21 35 102 186
172 321 26 51 54 102 63 115 32 45 26 48 -123 48 l-140 0 -30 -46 c-17 -25
-31 -47 -31 -49 0 -2 -67 -116 -150 -254 -82 -137 -150 -252 -150 -255 0 -3
-13 -25 -30 -49 -16 -25 -30 -49 -30 -54 0 -12 -33 -43 -46 -43 -9 0 -35 39
-94 137 -14 23 -79 130 -145 238 -66 108 -126 209 -134 223 -8 15 -17 29 -21
32 -3 3 -10 12 -14 20 -20 42 -57 94 -71 101 -5 2 -68 3 -140 1z"/>
<path d="M2174 1637 c-11 -6 -14 -35 -14 -132 0 -113 2 -125 19 -135 30 -15
1023 -14 1039 2 17 17 17 257 -1 263 -22 9 -1028 10 -1043 2z"/>
<path d="M3468 1639 c-16 -9 -18 -26 -18 -132 0 -82 4 -127 12 -135 17 -17
1029 -17 1046 0 8 8 12 53 12 135 0 111 -2 123 -19 133 -27 14 -1009 13 -1033
-1z"/>
<path d="M4622 1638 c-18 -18 -17 -262 1 -277 9 -7 85 -12 208 -13 l194 -3 5
-515 5 -515 160 -3 c88 -1 170 0 183 3 l22 5 0 504 c0 406 3 506 13 515 9 6
84 12 203 13 l189 3 0 145 0 145 -585 3 c-447 2 -589 -1 -598 -10z"/>
<path d="M5965 1638 c-3 -7 -4 -308 -3 -668 l3 -655 174 -3 c119 -2 178 1 187
9 19 16 21 1298 2 1317 -17 17 -357 17 -363 0z"/>
<path d="M6617 1643 c-4 -3 -7 -43 -7 -88 0 -70 3 -87 23 -111 12 -16 137
-166 277 -335 140 -169 280 -337 310 -374 30 -37 60 -73 65 -79 6 -6 29 -34
50 -61 63 -80 177 -216 212 -252 l31 -33 145 0 c171 0 171 0 165 93 -4 60 -6
66 -81 162 -139 181 -295 378 -343 435 -21 24 -88 103 -123 145 -10 12 -36 45
-59 74 -24 30 -62 77 -87 105 -24 28 -92 110 -151 181 -59 72 -112 133 -118
137 -14 10 -300 10 -309 1z"/>
<path d="M7527 1643 c-4 -3 -7 -60 -7 -126 l0 -120 36 -41 c71 -81 80 -92 114
-136 19 -25 41 -52 49 -61 9 -9 45 -52 81 -97 57 -72 66 -80 78 -65 17 24 18
623 0 641 -13 13 -339 18 -351 5z"/>
<path d="M8156 1634 c-9 -24 -7 -1297 2 -1312 7 -9 52 -12 193 -10 l184 3 0
665 0 665 -186 3 c-164 2 -187 0 -193 -14z"/>
<path d="M2172 1118 c-15 -15 -17 -244 -2 -253 13 -8 1038 -7 1051 1 14 8 11
238 -3 252 -17 17 -1029 17 -1046 0z"/>
<path d="M3462 1118 c-8 -8 -12 -51 -12 -130 0 -106 2 -118 19 -128 13 -6 193
-10 516 -10 323 0 503 4 516 10 17 10 19 22 19 128 0 79 -4 122 -12 130 -17
17 -1029 17 -1046 0z"/>
<path d="M1854 1068 c-4 -13 -17 -39 -29 -58 -21 -34 -48 -82 -121 -217 -19
-34 -47 -85 -64 -113 -16 -28 -30 -53 -30 -55 0 -3 -13 -27 -30 -53 -28 -46
-30 -55 -30 -151 0 -74 3 -101 13 -101 89 -4 314 3 320 9 11 11 -3 761 -14
761 -4 0 -11 -10 -15 -22z"/>
<path d="M342 693 l3 -368 158 -5 c86 -3 162 -3 167 -2 6 2 10 43 10 92 0 87
-1 90 -45 167 -25 43 -50 85 -55 93 -6 8 -13 22 -17 30 -3 8 -23 44 -44 80
-61 104 -98 171 -125 228 -14 28 -32 52 -40 52 -12 0 -14 -53 -12 -367z"/>
<path d="M6615 967 c-3 -7 -4 -156 -3 -332 l3 -320 180 0 180 0 3 112 3 112
-59 73 c-32 40 -80 102 -107 136 -28 35 -65 82 -83 104 -18 23 -47 60 -64 84
-33 46 -45 53 -53 31z"/>
<path d="M2178 589 c-16 -9 -18 -26 -18 -134 0 -76 4 -126 11 -130 13 -9 1036
-8 1049 0 15 9 13 248 -2 263 -16 16 -1014 17 -1040 1z"/>
<path d="M3462 588 c-8 -8 -12 -53 -12 -135 0 -111 2 -123 19 -133 27 -14
1005 -14 1032 0 17 10 19 22 19 133 0 82 -4 127 -12 135 -17 17 -1029 17
-1046 0z"/>
</g>
</svg>
